<?xml version="1.0" standalone="no"?>
<!DOCTYPE svg PUBLIC "-//W3C//DTD SVG 20010904//EN"
 "http://www.w3.org/TR/2001/REC-SVG-20010904/DTD/svg10.dtd">
<svg version="1.0" xmlns="http://www.w3.org/2000/svg"
 width="1024.000000pt" height="1024.000000pt" viewBox="0 0 1024.000000 1024.000000"
 preserveAspectRatio="xMidYMid meet">
<metadata>
Created by potrace 1.14, written by Peter Selinger 2001-2017
</metadata>
<g transform="translate(0.000000,1024.000000) scale(0.100000,-0.100000)"
fill="#000000" stroke="none">
<path d="M309 9543 c-66 -17 -140 -63 -179 -113 -16 -21 -30 -41 -30 -46 0 -4
-6 -15 -13 -23 -33 -38 -37 -122 -37 -634 1 -491 1 -510 22 -565 28 -75 62
-121 122 -166 101 -75 -382 -68 4926 -68 5306 0 4825 -7 4926 68 63 47 97 94
124 173 20 62 21 75 18 595 l-3 531 -27 55 c-45 93 -110 152 -208 190 -53 21
-9561 23 -9641 3z"/>
<path d="M3205 7261 c-82 -20 -162 -87 -206 -171 l-24 -45 -3 -555 -3 -555
-1287 -1 c-1202 0 -1336 -2 -1402 -20 -90 -26 -188 -133 -216 -239 -20 -74
-19 -1050 1 -1117 34 -115 119 -201 230 -234 56 -17 143 -18 1367 -18 l1308
-1 1 -610 c1 -335 1 -612 1 -615 0 -3 12 -23 27 -45 39 -58 66 -64 288 -64
181 1 194 2 225 22 17 12 41 38 52 57 20 33 20 51 21 644 l0 611 1536 0 1535
0 1 47 c2 73 35 121 98 143 20 6 105 10 218 10 164 -1 190 -3 221 -20 45 -25
79 -88 74 -142 l-3 -38 -295 0 c-162 0 -300 -3 -305 -7 -6 -4 -10 -62 -10
-151 1 -158 10 -188 68 -231 27 -20 42 -21 225 -22 145 -1 206 2 230 12 77 32
92 73 92 256 l0 143 1278 0 c702 0 1304 3 1336 7 145 20 248 109 295 256 7 22
11 212 11 550 0 557 -1 567 -54 650 -50 79 -106 122 -192 148 -55 17 -149 18
-1366 18 l-1308 1 0 145 c0 178 -13 215 -81 248 -40 19 -60 21 -239 19 -187
-2 -196 -3 -228 -25 -57 -41 -65 -69 -66 -237 l-1 -150 -1525 0 c-839 0 -1530
3 -1535 7 -7 4 -10 127 -9 355 1 191 2 350 3 353 0 3 803 5 1784 5 1761 0
1782 0 1816 20 19 11 43 33 55 48 20 27 21 41 21 241 0 239 -3 249 -75 286
-39 20 -54 20 -1997 19 -1077 -1 -1971 -4 -1988 -8z m380 -2131 c0 -443 -3
-810 -7 -815 -4 -7 -114 -10 -305 -10 l-298 0 -3 805 c-1 443 0 810 2 815 2 6
114 10 307 10 l304 0 0 -805z m3681 760 c2 -71 -37 -126 -101 -147 -16 -5
-113 -9 -215 -8 -206 1 -231 8 -268 67 -22 35 -34 112 -21 125 5 5 142 8 306
8 l298 0 1 -45z m-79 -481 c30 -15 47 -32 62 -63 19 -38 21 -61 21 -226 0
-167 -2 -188 -21 -228 -36 -74 -65 -81 -301 -79 -183 2 -199 4 -225 23 -62 46
-67 68 -67 283 0 215 6 240 61 279 40 28 49 29 248 30 160 1 185 -2 222 -19z"/>
<path d="M4002 3582 c-12 -2 -40 -20 -61 -40 -49 -47 -53 -73 -49 -298 3 -165
4 -172 29 -210 38 -56 71 -64 285 -64 206 0 243 10 279 76 18 34 20 57 20 233
0 188 -1 198 -24 234 -40 65 -62 71 -271 71 -102 1 -195 0 -208 -2z"/>
<path d="M4901 3569 c-80 -36 -89 -66 -89 -292 1 -165 3 -192 20 -226 36 -74
45 -76 288 -76 242 0 250 2 289 78 16 33 19 60 19 224 -1 226 -8 251 -88 294
-40 21 -392 20 -439 -2z"/>
<path d="M5843 3582 c-30 -4 -103 -77 -104 -104 -7 -121 -3 -379 5 -404 17
-46 51 -84 88 -95 18 -5 117 -9 221 -8 211 1 231 6 269 67 22 35 23 48 25 228
2 118 -1 204 -8 223 -6 17 -29 45 -51 63 l-41 32 -191 0 c-105 1 -201 0 -213
-2z"/>
<path d="M6749 3573 c-16 -6 -37 -20 -47 -30 -41 -39 -45 -61 -46 -261 -2
-177 0 -196 19 -229 41 -74 54 -78 265 -81 234 -4 260 2 301 65 l29 47 0 190
c0 168 -2 194 -20 230 -35 72 -62 80 -282 81 -128 0 -199 -4 -219 -12z"/>
<path d="M385 2309 c-111 -11 -164 -33 -232 -100 -41 -41 -69 -88 -92 -157 -7
-22 -10 -209 -11 -550 0 -545 1 -562 47 -645 22 -40 97 -113 138 -133 84 -42
-93 -41 4905 -39 4451 1 4768 2 4815 18 69 24 122 63 164 121 70 98 69 91 70
673 1 530 0 544 -38 624 -38 81 -119 148 -209 175 -52 15 -429 16 -4772 17
-2593 1 -4746 -1 -4785 -4z"/>
</g>
</svg>
